<?xml version="1.0" encoding="utf-8"?>
<svg xmlns="http://www.w3.org/2000/svg" xmlns:xlink="http://www.w3.org/1999/xlink" style="margin: auto; background: rgb(241, 242, 243); display: block; shape-rendering: auto;" width="227px" height="227px" viewBox="0 0 100 100" preserveAspectRatio="xMidYMid">
<g transform="rotate(0 50 50)">
  <rect x="48" y="25" rx="2" ry="5" width="4" height="10" fill="#df1317">
    <animate attributeName="opacity" values="1;0" keyTimes="0;1" dur="1.1363636363636362s" begin="-1.0416666666666665s" repeatCount="indefinite"></animate>
  </rect>
</g><g transform="rotate(30 50 50)">
  <rect x="48" y="25" rx="2" ry="5" width="4" height="10" fill="#e4934b">
    <animate attributeName="opacity" values="1;0" keyTimes="0;1" dur="1.1363636363636362s" begin="-0.9469696969696968s" repeatCount="indefinite"></animate>
  </rect>
</g><g transform="rotate(60 50 50)">
  <rect x="48" y="25" rx="2" ry="5" width="4" height="10" fill="#e2bb8b">
    <animate attributeName="opacity" values="1;0" keyTimes="0;1" dur="1.1363636363636362s" begin="-0.8522727272727271s" repeatCount="indefinite"></animate>
  </rect>
</g><g transform="rotate(90 50 50)">
  <rect x="48" y="25" rx="2" ry="5" width="4" height="10" fill="#e1e7e7">
    <animate attributeName="opacity" values="1;0" keyTimes="0;1" dur="1.1363636363636362s" begin="-0.7575757575757575s" repeatCount="indefinite"></animate>
  </rect>
</g><g transform="rotate(120 50 50)">
  <rect x="48" y="25" rx="2" ry="5" width="4" height="10" fill="#91bcc6">
    <animate attributeName="opacity" values="1;0" keyTimes="0;1" dur="1.1363636363636362s" begin="-0.6628787878787877s" repeatCount="indefinite"></animate>
  </rect>
</g><g transform="rotate(150 50 50)">
  <rect x="48" y="25" rx="2" ry="5" width="4" height="10" fill="#07abcc">
    <animate attributeName="opacity" values="1;0" keyTimes="0;1" dur="1.1363636363636362s" begin="-0.568181818181818s" repeatCount="indefinite"></animate>
  </rect>
</g><g transform="rotate(180 50 50)">
  <rect x="48" y="25" rx="2" ry="5" width="4" height="10" fill="#0a69aa">
    <animate attributeName="opacity" values="1;0" keyTimes="0;1" dur="1.1363636363636362s" begin="-0.4734848484848484s" repeatCount="indefinite"></animate>
  </rect>
</g><g transform="rotate(210 50 50)">
  <rect x="48" y="25" rx="2" ry="5" width="4" height="10" fill="#194645">
    <animate attributeName="opacity" values="1;0" keyTimes="0;1" dur="1.1363636363636362s" begin="-0.37878787878787873s" repeatCount="indefinite"></animate>
  </rect>
</g><g transform="rotate(240 50 50)">
  <rect x="48" y="25" rx="2" ry="5" width="4" height="10" fill="#df1317">
    <animate attributeName="opacity" values="1;0" keyTimes="0;1" dur="1.1363636363636362s" begin="-0.284090909090909s" repeatCount="indefinite"></animate>
  </rect>
</g><g transform="rotate(270 50 50)">
  <rect x="48" y="25" rx="2" ry="5" width="4" height="10" fill="#e4934b">
    <animate attributeName="opacity" values="1;0" keyTimes="0;1" dur="1.1363636363636362s" begin="-0.18939393939393936s" repeatCount="indefinite"></animate>
  </rect>
</g><g transform="rotate(300 50 50)">
  <rect x="48" y="25" rx="2" ry="5" width="4" height="10" fill="#e2bb8b">
    <animate attributeName="opacity" values="1;0" keyTimes="0;1" dur="1.1363636363636362s" begin="-0.09469696969696968s" repeatCount="indefinite"></animate>
  </rect>
</g><g transform="rotate(330 50 50)">
  <rect x="48" y="25" rx="2" ry="5" width="4" height="10" fill="#e1e7e7">
    <animate attributeName="opacity" values="1;0" keyTimes="0;1" dur="1.1363636363636362s" begin="0s" repeatCount="indefinite"></animate>
  </rect>
</g>
<!-- [ldio] generated by https://loading.io/ --></svg>